{"title":"Bereavement *2010* [BRRip.XviD-miguel] [ENG]","uid":6649035,"size":1394631416,"categoryP":"video","categoryS":"movies","magnet":"?xt=urn:btih:beb0039eee160e80a37b6f1684d5e1e54d8bd874&amp;dn=Bereavement+%2A2010%2A+%5BBRRip.XviD-miguel%5D+%5BENG%5D&amp;tr=udp%3A%2F%2Ftracker.openbittorrent.com%3A80&amp;tr=udp%3A%2F%2Fopen.demonii.com%3A1337&amp;tr=udp%3A%2F%2Ftracker.coppersurfer.tk%3A6969&amp;tr=udp%3A%2F%2Fexodus.desync.com%3A6969","seeders":0,"leechers":0,"uploader":"miguel1983","files":-1,"time":1315062697,"description":" &lt;a href=&quot;http://img703.imageshack.us/img703/3844/bereavement2010.jpg&quot; rel=&quot;nofollow&quot; target=&quot;_NEW&quot;&gt;http://img703.imageshack.us/img703/3844/bereavement2010.jpg&lt;/a&gt;\n\nCountry.......: USA\nGenre.........: Horror, Thriller, Crime\nDate release..: 16.07.2010 [World]\nDirector......: Stevan Mena\nWriters.......: Stevan Mena\nDuration......: 107 min.\nMore..........: http://www.imdb.com/title/tt1100051\nTrailer.......: http://www.imdb.com/video/imdb/vi2930415641\nTrailer.......:\n\nPilot :\nThe horrific account of 6 year old Martin Bristol, abducted from his backyard swing and forced to witness the brutal crimes of a deranged madman. \n\nCats :\nAlexandra Daddario   \t ...  \tAllison\nMichael Biehn \t... \tJonathan Miller\nPeyton List \t... \tWendy\nJohn Savage \t... \tTed\nNolan Gerard Funk \t... \tWilliam\nSpencer List \t... \tMartin\nValentina de Angelis \t... \tMelissa\nMatthew Mindler \t... \tBoy Playing Soccer\nBrett Rickaby \t... \tGraham Sutter\nKathryn Meisle \t... \tKaren\nAshley Wolfe \t... \tKatherine\nAndrea Havens \t... \tAgatha\nGreg Wood \t... \tTeacher\nJamie Farrell \t... \tNurse s Aide\nJonathan Walker \t... \tDoctor\n\nData Technical :\n!!! SAMPLE !!!\nAudio.....: English\nSubtitles.: Spanish .srt, Czech .srt, English .srt\nFormat                           : AVI\nFormat/Info                      : Audio Video Interleave\nFile size                        : 1.30 GiB\nDuration                         : 1h 47mn\nOverall bit rate                 : 1 727 Kbps\nVideo\nID                               : 0\nFormat                           : MPEG-4 Visual\nFormat profile                   : Advanced Simple@L5\nFormat settings, BVOP            : Yes\nFormat settings, QPel            : No\nFormat settings, GMC             : No warppoints\nFormat settings, Matrix          : Default (H.263)\nMuxing mode                      : Packed bitstream\nCodec ID                         : XVID\nCodec ID/Hint                    : XviD\nDuration                         : 1h 47mn\nBit rate                         : 1 335 Kbps\nWidth                            : 720 pixels\nHeight                           : 304 pixels\nDisplay aspect ratio             : 2.35:1\nFrame rate                       : 23.976 fps\nColor space                      : YUV\nChroma subsampling               : 4:2:0\nBit depth                        : 8 bits\nScan type                        : Progressive\nBits/(Pixel*Frame)               : 0.254\nStream size                      : 1.00 GiB (77%)\nWriting library                  : XviD 64\nAudio\nID                               : 1\nFormat                           : AC-3\nFormat/Info                      : Audio Coding 3\nMode extension                   : CM (complete main)\nCodec ID                         : 2000\nDuration                         : 1h 47mn\nBit rate mode                    : Constant\nBit rate                         : 384 Kbps\nChannel(s)                       : 6 channels\nChannel positions                : Front: L C R, Side: L R, LFE\nSampling rate                    : 48.0 KHz\nBit depth                        : 16 bits\nStream size                      : 295 MiB (22%)\nAlignment                        : Aligned on interleaves\nInterleave, duration             : 64 ms (1.53 video frames)\nInterleave, preload duration     : 192 ms\n\nScreen : &lt;a href=&quot;\nhttp://img8.imageshack.us/img8/4994/bereavement2010s1.jpg&quot; rel=&quot;nofollow&quot; target=&quot;_NEW&quot;&gt;\nhttp://img8.imageshack.us/img8/4994/bereavement2010s1.jpg&lt;/a&gt; &lt;a href=&quot;\nhttp://img571.imageshack.us/img571/4042/bereavement2010s2.jpg&quot; rel=&quot;nofollow&quot; target=&quot;_NEW&quot;&gt;\nhttp://img571.imageshack.us/img571/4042/bereavement2010s2.jpg&lt;/a&gt; &lt;a href=&quot;\nhttp://img854.imageshack.us/img854/9055/bereavement2010s3.jpg&quot; rel=&quot;nofollow&quot; target=&quot;_NEW&quot;&gt;\nhttp://img854.imageshack.us/img854/9055/bereavement2010s3.jpg&lt;/a&gt; &lt;a href=&quot;\nhttp://img268.imageshack.us/img268/376/bereavement2010s4.jpg&quot; rel=&quot;nofollow&quot; target=&quot;_NEW&quot;&gt;\nhttp://img268.imageshack.us/img268/376/bereavement2010s4.jpg&lt;/a&gt; &lt;a href=&quot;\nhttp://img33.imageshack.us/img33/1481/bereavement2010s5.jpg&quot; rel=&quot;nofollow&quot; target=&quot;_NEW&quot;&gt;\nhttp://img33.imageshack.us/img33/1481/bereavement2010s5.jpg&lt;/a&gt;","torrent":{"xt":"urn:btih:beb0039eee160e80a37b6f1684d5e1e54d8bd874","amp;dn":"Bereavement+%2A2010%2A+%5BBRRip.XviD-miguel%5D+%5BENG%5D","amp;tr":["udp%3A%2F%2Ftracker.openbittorrent.com%3A80","udp%3A%2F%2Fopen.demonii.com%3A1337","udp%3A%2F%2Ftracker.coppersurfer.tk%3A6969","udp%3A%2F%2Fexodus.desync.com%3A6969"],"infoHash":"beb0039eee160e80a37b6f1684d5e1e54d8bd874","infoHashBuffer":{"type":"Buffer","data":[190,176,3,158,238,22,14,128,163,123,111,22,132,213,225,229,77,139,216,116]},"announce":[],"urlList":[]}}